<svg width="116" height="16" viewBox="0 0 116 16" fill="none" xmlns="http://www.w3.org/2000/svg">
<g clip-path="url(#clip0)">
<path d="M10.5363 0.257189V11.2385C10.5363 13.5551 9.22735 16 5.27887 16C1.71683 16 0.00012207 14.1554 0.00012207 11.2385L0.00012207 0.257189H3.2404V11.0241C3.2404 12.9328 4.05596 13.6835 5.23628 13.6835C6.65225 13.6835 7.29607 12.7398 7.29607 11.0241V0.257189H10.5363Z" fill="black"/>
<path d="M16.9106 6.9488H18.3485C19.6359 6.9488 20.0009 5.66199 20.0009 4.67533C20.0009 3.19556 19.3784 2.63777 18.3485 2.63777H16.9106V6.9488ZM16.9106 15.7424H13.6703V0.257171H19.6575C21.8679 0.257171 23.2839 1.67281 23.2839 4.31072C23.2839 6.28391 22.5118 7.76406 20.4087 8.10688V8.15003C21.1167 8.23579 23.2198 8.40734 23.2198 11.1957C23.2198 12.1824 23.2839 15.0991 23.5845 15.7424H20.4087C19.9795 14.7989 20.0651 13.7479 20.0651 12.7397C20.0651 10.8952 20.2369 9.32956 17.7478 9.32956H16.9106V15.7424Z" fill="black"/>
<path d="M29.693 13.3617H31.4957C32.1823 13.3617 33.7272 13.3403 33.7272 11.1741C33.7272 9.80146 33.2123 8.96498 31.5815 8.96498H29.693V13.3617ZM29.693 6.58421H31.8604C32.5684 6.58421 33.5557 6.11234 33.5557 4.61119C33.5557 3.47443 32.783 2.63778 31.6887 2.63778H29.693V6.58421ZM26.4528 15.7427V0.257177H32.2039C34.6715 0.257177 36.7101 0.964995 36.7101 4.26774C36.7101 6.04797 35.8303 7.33494 34.0707 7.678V7.72091C36.3668 8.04276 36.9677 9.52277 36.9677 11.646C36.9677 15.571 33.5557 15.7427 32.1823 15.7427H26.4528Z" fill="black"/>
<path d="M44.5845 3.23847H44.5415L43.0611 9.9301H46.1511L44.5845 3.23847ZM38.34 15.7424L42.632 0.257171H46.9022L51.108 15.7424H47.696L46.8376 12.3109H42.4171L41.5373 15.7424H38.34Z" fill="black"/>
<path d="M53.1471 15.7424V0.257171H57.5248L61.6448 10.9811H61.6878V0.257171H64.7132V15.7424H60.4431L56.2158 4.41816H56.173V15.7424H53.1471Z" fill="black"/>
<path d="M67.8644 15.7424V0.257171H76.3194V2.63777H71.1048V6.4557H75.9116V8.83631H71.1048V13.3617H76.4907V15.7424H67.8644Z" fill="black"/>
<path d="M84.4399 3.23847H84.3969L82.9165 9.9301H86.0063L84.4399 3.23847ZM78.1954 15.7424L82.4872 0.257171H86.7574L90.9632 15.7424H87.5512L86.693 12.3109H82.2725L81.3928 15.7424H78.1954Z" fill="black"/>
<path d="M96.1656 6.9488H97.6033C98.8908 6.9488 99.256 5.66199 99.256 4.67533C99.256 3.19556 98.6332 2.63777 97.6033 2.63777H96.1656V6.9488ZM96.1656 15.7424H92.9254V0.257171H98.9123C101.123 0.257171 102.539 1.67281 102.539 4.31072C102.539 6.28391 101.767 7.76406 99.6636 8.10688V8.15003C100.372 8.23579 102.475 8.40734 102.475 11.1957C102.475 12.1824 102.539 15.0991 102.839 15.7424H99.6636C99.2345 14.7989 99.3199 13.7479 99.3199 12.7397C99.3199 10.8952 99.4918 9.32956 97.0027 9.32956H96.1656V15.7424Z" fill="black"/>
<path d="M109.669 16C105.656 16 104.906 13.6406 105.077 10.9598H108.318C108.318 12.4395 108.382 13.6835 110.163 13.6835C111.257 13.6835 111.794 12.9757 111.794 11.9249C111.794 9.13656 105.27 8.96515 105.27 4.35365C105.27 1.92997 106.429 -0.000120163 110.378 -0.000120163C113.532 -0.000120163 115.098 1.4155 114.884 4.65372H111.729C111.729 3.4958 111.536 2.31635 110.227 2.31635C109.176 2.31635 108.554 2.8951 108.554 3.96753C108.554 6.90607 115.077 6.64876 115.077 11.5172C115.077 15.5281 112.137 16 109.669 16Z" fill="black"/>
</g>
<defs>
<clipPath id="clip0">
<rect width="115.077" height="16" fill="white"/>
</clipPath>
</defs>
</svg>
